<svg id="9761c6c6-06a1-413a-b132-1101365eba8f" data-name="Слой 1" xmlns="http://www.w3.org/2000/svg" viewBox="0 0 465.9 391.9"><title>advent02</title><path d="M294,409H219a2.7,2.7,0,0,1-2.1-.9l-19-19a3,3,0,0,1-.5-3.6A59.5,59.5,0,0,0,205,356a57.1,57.1,0,0,0-57-57c-8.3,0-14.8,1.2-20.8,3.8a3.1,3.1,0,0,1-3.9-1.4C106,265.6,106,220.5,106,111.4V93a3,3,0,0,1,1.1-2.3,2.8,2.8,0,0,1,2.5-.6A217.4,217.4,0,0,0,149,93.8c38.1,0,72.5-10.9,105.3-33.2a2.9,2.9,0,0,1,3.6.2c26,21.8,59.3,32.3,101.9,32.3a313.7,313.7,0,0,0,41.8-3,3,3,0,0,1,2.4.7,2.9,2.9,0,0,1,1,2.3c0,16.2,0,31.3.1,44.7.2,78.9.4,118.5-9.4,148.4s-29.4,50.1-68.3,89.8c-9.2,9.4-19.6,20-31.3,32.1A2.6,2.6,0,0,1,294,409Zm-73.7-6h72.5c11.3-11.8,21.4-22.1,30.4-31.3,38.3-39,57.5-58.6,66.9-87.4s9.3-68.3,9.1-146.6c0-12.4-.1-26.4-.1-41.3A323.4,323.4,0,0,1,359.9,99c-43.1,0-77.1-10.6-104-32.3-33.3,22.2-68.2,33-106.8,33a227.5,227.5,0,0,1-37-3.2v14.9c0,105.5-.1,150.6,15.5,184.7,6-2.2,12.5-3.2,20.5-3.2a63.1,63.1,0,0,1,63,63,65.6,65.6,0,0,1-7.3,30.5Z" transform="translate(-23.1 -60.1)" style="fill:#fff"/><path d="M108.1,130h-54a3,3,0,1,1,0-6h54a2.9,2.9,0,0,1,3,3A3,3,0,0,1,108.1,130Z" transform="translate(-23.1 -60.1)" style="fill:#fff"/><path d="M108.1,166h-82a3,3,0,1,1,0-6h82a2.9,2.9,0,0,1,3,3A3,3,0,0,1,108.1,166Z" transform="translate(-23.1 -60.1)" style="fill:#fff"/><path d="M108.1,202h-54a3,3,0,1,1,0-6h54a2.9,2.9,0,0,1,3,3A3,3,0,0,1,108.1,202Z" transform="translate(-23.1 -60.1)" style="fill:#fff"/><path d="M108.1,238h-82a3,3,0,0,1,0-6h82a2.9,2.9,0,0,1,3,3A3,3,0,0,1,108.1,238Z" transform="translate(-23.1 -60.1)" style="fill:#fff"/><path d="M108.1,274h-54a3,3,0,0,1,0-6h54a2.9,2.9,0,0,1,3,3A3,3,0,0,1,108.1,274Z" transform="translate(-23.1 -60.1)" style="fill:#fff"/><path d="M458,130H402a3,3,0,0,1,0-6h56a3,3,0,0,1,0,6Z" transform="translate(-23.1 -60.1)" style="fill:#fff"/><path d="M486,166H402a3,3,0,0,1,0-6h84a3,3,0,0,1,0,6Z" transform="translate(-23.1 -60.1)" style="fill:#fff"/><path d="M458,202H402a3,3,0,0,1,0-6h56a3,3,0,0,1,0,6Z" transform="translate(-23.1 -60.1)" style="fill:#fff"/><path d="M486,238H402a3,3,0,0,1,0-6h84a3,3,0,0,1,0,6Z" transform="translate(-23.1 -60.1)" style="fill:#fff"/><path d="M458,274H402a3,3,0,0,1,0-6h56a3,3,0,0,1,0,6Z" transform="translate(-23.1 -60.1)" style="fill:#fff"/><path d="M299.1,350a3,3,0,0,1-2.3-1,2.9,2.9,0,0,1,.3-4.2c73.5-64,73.4-67.9,71-168.4-.3-13.3-.7-28.3-.9-45.2-45.4.7-82.5-7.7-113.1-25.6a217.2,217.2,0,0,1-110,25.7c-.9,32-.9,62.7.1,93.8a2.9,2.9,0,0,1-2.9,3.1,3,3,0,0,1-3.1-2.9c-1-32.2-1-64,0-97.2a2.8,2.8,0,0,1,1-2.1,3.5,3.5,0,0,1,2.2-.8A210.9,210.9,0,0,0,252.8,99.6a2.9,2.9,0,0,1,3,.1c30.6,18.3,68,26.7,114.4,25.6a3.5,3.5,0,0,1,2.2.8,2.7,2.7,0,0,1,.9,2.1c.2,18.2.6,34.1,1,48.2,2.5,101.2,2.7,107.2-73,173.1A6.3,6.3,0,0,1,299.1,350Z" transform="translate(-23.1 -60.1)" style="fill:#fff"/><path d="M256,292a66,66,0,0,1-47.6-19.9A68.1,68.1,0,0,1,189,224a67,67,0,0,1,134,0C323,261.5,293,292,256,292Zm0-129a61.1,61.1,0,0,0-61,61c0,34.8,26.8,62,61,62s61-27.8,61-62S289.1,163,256,163Z" transform="translate(-23.1 -60.1)" style="fill:#e1ed22"/><path d="M259.1,244.9a9.4,9.4,0,0,0,5.1-3,8.3,8.3,0,0,0,2-5.5,7.2,7.2,0,0,0-1.7-4.8c-1.1-1.4-2.9-2.4-5.5-3.1v16.4ZM253,200.1a8.7,8.7,0,0,0-3.9,2.9,7,7,0,0,0-1.4,4.4,6.9,6.9,0,0,0,1.3,4.1,9.2,9.2,0,0,0,4,3.1V200.1Zm0,44.1V226.6c-5.5-1.6-9.5-4-12-7.1a17.8,17.8,0,0,1-3.8-11.6,16.5,16.5,0,0,1,4.3-11.6,17.6,17.6,0,0,1,11.5-5.4v-4.1h6.1v4.1c4.5.6,8.1,2.1,10.7,4.6s4.3,5.9,5.1,10.1L264.2,207a8.8,8.8,0,0,0-5.1-6.7v16.4c6.8,1.8,11.4,4.2,13.8,7.1s3.7,6.6,3.7,11.2a18.5,18.5,0,0,1-4.6,12.8c-3.1,3.5-7.4,5.6-12.9,6.5v7.9H253v-7.8a19.9,19.9,0,0,1-11.8-5.4c-3-3-4.9-7.3-5.8-12.7l10.9-1.3a14,14,0,0,0,2.6,5.8A11.8,11.8,0,0,0,253,244.2Z" transform="translate(-23.1 -60.1)" style="fill:#e1ed22"/><path d="M373,430H188a3,3,0,0,1,0-6H373a3,3,0,0,1,0,6Z" transform="translate(-23.1 -60.1)" style="fill:#fff"/><path d="M433,452H282a3,3,0,0,1,0-6H433a3,3,0,0,1,0,6Z" transform="translate(-23.1 -60.1)" style="fill:#fff"/><path d="M218.1,451h-72a3,3,0,0,1,0-6h72a2.9,2.9,0,0,1,3,3A3,3,0,0,1,218.1,451Z" transform="translate(-23.1 -60.1)" style="fill:#fff"/><path d="M148.1,420c-34.7,0-63-28.7-63-64a63,63,0,0,1,126,0C211.1,391.3,182.8,420,148.1,420Zm0-121a57.1,57.1,0,0,0-57,57c0,32,25.6,58,57,58s57-26,57-58A57.1,57.1,0,0,0,148.1,299Z" transform="translate(-23.1 -60.1)" style="fill:#fff"/><path d="M171.1,393a3.1,3.1,0,0,1-2.2-.9l-22-23a3.1,3.1,0,0,1-.6-3.3,2.9,2.9,0,0,1,2.8-1.8h9V341a2.9,2.9,0,0,1,3-3h20a2.9,2.9,0,0,1,3,3v23h9a3,3,0,0,1,2.2,5.1l-22,23A3.1,3.1,0,0,1,171.1,393Zm-15-23,15,15.7,15-15.7h-5a2.9,2.9,0,0,1-3-3V344h-14v23a2.9,2.9,0,0,1-3,3Z" transform="translate(-23.1 -60.1)" style="fill:#fff"/><path d="M135.1,372h-19a2.9,2.9,0,0,1-3-3V345h-10a3,3,0,0,1-2.2-5.1l22-23a2.9,2.9,0,0,1,2.1-.9,3.1,3.1,0,0,1,2.2.9L150,339.7a2.8,2.8,0,0,1,1.1,2.3,2.9,2.9,0,0,1-3,3h-10v24A3,3,0,0,1,135.1,372Zm-16-6h13V342a2.9,2.9,0,0,1,3-3h5.8l-15.7-15.7-15,15.7h6a2.9,2.9,0,0,1,3,3v24Z" transform="translate(-23.1 -60.1)" style="fill:#fff"/></svg>