<svg id="88b71c52-b8d5-4e43-a7f9-9b6bbc5cef1b" data-name="Слой 1" xmlns="http://www.w3.org/2000/svg" viewBox="0 0 353.6 395.5"><title>advent01</title><path d="M343.1,185.7a25.1,25.1,0,0,0-11.5,14.5A25.2,25.2,0,1,0,350,232.1c21.5,5,38.5-18.1,27.5-37.2a25.1,25.1,0,0,0-34.4-9.2Zm22,38.1a19.4,19.4,0,0,1-16.3,1.2,3.3,3.3,0,0,0-4.4,2.5,18.7,18.7,0,1,1-11.6-20.2,3.3,3.3,0,0,0,4.4-2.6,18.9,18.9,0,0,1,18.6-16,18.7,18.7,0,0,1,16.2,9.4,19,19,0,0,1-6.9,25.7Z" transform="translate(-79.2 -58.2)" style="fill:#e1ed22"/><path d="M213.4,284.7a3.2,3.2,0,0,0-4.4-1.2L163.1,310a3.2,3.2,0,0,0,3.2,5.6l45.8-26.5a3.2,3.2,0,0,0,1.3-4.4Z" transform="translate(-79.2 -58.2)" style="fill:#e1ed22"/><path d="M271.7,267.3,171.8,325a3.2,3.2,0,0,0-1.2,4.4,3.3,3.3,0,0,0,4.4,1.2L275,273a3.2,3.2,0,0,0,1.2-4.4,3.3,3.3,0,0,0-4.5-1.3Z" transform="translate(-79.2 -58.2)" style="fill:#e1ed22"/><path d="M171.6,255.1a3.3,3.3,0,0,0,2.8,1.6,3.2,3.2,0,0,0,2.8-4.9l-8.9-15.4a3.2,3.2,0,0,0-5.6,3.2Z" transform="translate(-79.2 -58.2)" style="fill:#fff"/><path d="M183,248.5a3.3,3.3,0,0,0,2.8,1.6,3.2,3.2,0,0,0,2.8-4.9l-8.9-15.5a3.2,3.2,0,0,0-5.6,3.2Z" transform="translate(-79.2 -58.2)" style="fill:#fff"/><path d="M194.3,241.9a3.3,3.3,0,0,0,2.8,1.6,3.2,3.2,0,0,0,2.8-4.9L191,223.1a3.2,3.2,0,0,0-5.6,3.2Z" transform="translate(-79.2 -58.2)" style="fill:#fff"/><path d="M205.8,235.4a3.3,3.3,0,0,0,2.8,1.6,3.2,3.2,0,0,0,2.8-4.9l-8.9-15.5a3.2,3.2,0,0,0-5.6,3.2Z" transform="translate(-79.2 -58.2)" style="fill:#fff"/><path d="M217.1,228.8a3.2,3.2,0,1,0,5.6-3.2l-8.9-15.5a3.2,3.2,0,1,0-5.6,3.2Z" transform="translate(-79.2 -58.2)" style="fill:#fff"/><path d="M228.5,222.3a3.3,3.3,0,0,0,2.8,1.6,3.2,3.2,0,0,0,2.8-4.9l-8.9-15.5a3.2,3.2,0,0,0-5.6,3.2Z" transform="translate(-79.2 -58.2)" style="fill:#fff"/><path d="M239.9,215.7a3.3,3.3,0,0,0,2.8,1.6,3.2,3.2,0,0,0,2.8-4.9l-8.9-15.5a3.2,3.2,0,0,0-5.6,3.2Z" transform="translate(-79.2 -58.2)" style="fill:#fff"/><path d="M251.3,209.1a3.3,3.3,0,0,0,2.8,1.6,3.2,3.2,0,0,0,2.8-4.9L248,190.3a3.2,3.2,0,0,0-5.6,3.2Z" transform="translate(-79.2 -58.2)" style="fill:#fff"/><path d="M262.7,202.5a3.3,3.3,0,0,0,2.8,1.6,3.2,3.2,0,0,0,2.8-4.9l-8.9-15.4a3.2,3.2,0,0,0-4.4-1.2,3.3,3.3,0,0,0-1.2,4.4Z" transform="translate(-79.2 -58.2)" style="fill:#fff"/><path d="M270.7,177.3a3.2,3.2,0,0,0-4.4-1.2,3.3,3.3,0,0,0-1.2,4.4L274,196a3.2,3.2,0,0,0,5.6-3.2Z" transform="translate(-79.2 -58.2)" style="fill:#fff"/><path d="M282.1,170.7a3.2,3.2,0,0,0-4.4-1.2,3.3,3.3,0,0,0-1.2,4.4l8.9,15.5a3.2,3.2,0,0,0,5.6-3.2Z" transform="translate(-79.2 -58.2)" style="fill:#fff"/><path d="M414.1,253.7,395,248.6c17.7-8.7,34.9-20.9,23.7-42.8-67.6-117.1-47-81.3-77.9-135a25.3,25.3,0,0,0-34.4-9.2L91.8,185.5a25.2,25.2,0,0,0-9.2,34.4c5.5,9.7,38.6,66.9,39.6,68.6l-18.6,69.4a25.3,25.3,0,0,0,17.8,30.9l239.3,64.1A25.3,25.3,0,0,0,391.6,435L432,284.6a25.4,25.4,0,0,0-17.9-30.9Zm11.6,29.2-2.5,9.4-70.9-19,34.9-20.1C402.5,258,431.2,259.2,425.7,282.9Zm-81.4-5,77.2,20.6-6.9,25.6L311.9,296.5Zm61.9-43.3L191.6,358.5a18.8,18.8,0,0,1-25.6-6.9l-53.3-92.3,247-142.6L413,209a18.6,18.6,0,0,1-6.8,25.6ZM96.3,230.7l247-142.6L356.5,111l-247,142.6ZM95,191.1,309.6,67.2c14.3-7.7,24.8,2.8,30.4,15.3L93,225.1c-7.9-11-11.8-25.6,2-34ZM385.3,433.4a18.8,18.8,0,0,1-22.9,13.3L123.1,382.6a18.7,18.7,0,0,1-13.2-23l16.9-63.1,19.6,34-9.3-2.4c-4.1-1.1-5.7,5.3-1.7,6.3l15.5,4.1,7.7,13.4-26-6.9c-4-1.1-5.8,5.2-1.7,6.3l33.5,8.9a25.3,25.3,0,0,0,24.5,6.6c56.9,15.2,53.5,14.4,54.3,14.4,3.7.1,4.5-5.5.8-6.4l-46.1-12.3L304,301.2l109,29.2Z" transform="translate(-79.2 -58.2)" style="fill:#fff"/></svg>