<svg id="985c5baf-4a2d-4041-b595-092246d3e362" data-name="Слой 1" xmlns="http://www.w3.org/2000/svg" viewBox="0 0 512 422.2"><title>chat</title><g id="6a422f66-a353-457a-8f54-2f4520488119" data-name="Page-1"><g id="85cc07d6-f714-4ed7-bf1c-e234790e9c9b" data-name="040---Conversations"><path id="5309bc93-ec56-4641-84f2-9b78031d65c4" data-name="Shape" d="M219.9,42.7a297.1,297.1,0,0,0-45.2,3.4C103,57.3,23.1,97.1,13.9,175.1a100.9,100.9,0,0,0,2.7,37.1c1,3.8,2.1,7.6,3.2,11.4a118,118,0,0,1,5.3,22.8,80.9,80.9,0,0,1-6.7,41.2,91.8,91.8,0,0,1-13.9,20,17.6,17.6,0,0,0,13,29.3l2.5-.2a297.3,297.3,0,0,0,42.6-10.4,232.8,232.8,0,0,1,47.3-10.6,129.9,129.9,0,0,1,16.5-.4,249.5,249.5,0,0,1,38.5,5.4c8.5,1.6,17.2,3.3,26,4.4a303.5,303.5,0,0,0,70,1c75.7-8.2,157.2-55.5,157.2-139.7,0-80.6-87.1-143.7-198.2-143.7Zm39.2,266.5a286.6,286.6,0,0,1-66.1-1.1c-8.3-1-16.7-2.6-24.9-4.2a247.5,247.5,0,0,0-41.2-5.6,161.5,161.5,0,0,0-18.4.4,245.3,245.3,0,0,0-50.8,11.2,276.2,276.2,0,0,1-40.1,9.9l-.3-.8A112.8,112.8,0,0,0,34,294.7a98.5,98.5,0,0,0,8.1-49.9,137,137,0,0,0-5.9-26.1c-1-3.5-2.1-7.1-3-10.7a82.6,82.6,0,0,1-2.3-30.9C39,108.6,111.9,73.2,177.4,63a273.7,273.7,0,0,1,42.5-3.3c101.6,0,181.2,55.7,181.2,126.7C401.1,260.1,327.4,301.7,259.1,309.2Z" transform="translate(0 -42.7)" style="fill:#998a83"/><path id="6392accc-556a-41a5-96a6-4276f9478ef0" data-name="Shape" d="M189.8,87a8.5,8.5,0,0,0-9.7-7.1,204,204,0,0,0-100,42,8.5,8.5,0,0,0,11.2,12.9,187.6,187.6,0,0,1,91.3-38.1,8.3,8.3,0,0,0,5.6-3.4,8.8,8.8,0,0,0,1.6-6.3Z" transform="translate(0 -42.7)" style="fill:#998a83"/><path id="2372643a-743f-4c51-8f1e-59bffc1cf73a" data-name="Shape" d="M454.4,438a239.2,239.2,0,0,0-50.8-11.3,142.4,142.4,0,0,0-18.5-.5,261.7,261.7,0,0,0-41.2,5.7c-8.2,1.5-16.6,3.2-24.9,4.2a281.1,281.1,0,0,1-66.1,1c-58.6-6.4-125.3-38.6-142.3-96.2a8.6,8.6,0,0,0-10.6-5.7,8.7,8.7,0,0,0-5.8,10.5c19.2,65.2,92.7,101.4,156.9,108.4a299,299,0,0,0,70.1-1.1c8.8-1.1,17.5-2.7,25.9-4.4a239.3,239.3,0,0,1,38.5-5.3,153.3,153.3,0,0,1,16.6.4,233,233,0,0,1,47.3,10.7,297.3,297.3,0,0,0,42.6,10.4,17.6,17.6,0,0,0,17.8-9.3,17.4,17.4,0,0,0-2.4-19.9,91.8,91.8,0,0,1-13.9-20,80.4,80.4,0,0,1-6.6-41.3,121.5,121.5,0,0,1,5.2-23c1.1-3.7,2.2-7.4,3.2-11.1a100.9,100.9,0,0,0,2.7-37.1,124.7,124.7,0,0,0-53.9-87,8.6,8.6,0,0,0-8.5-.9,8.8,8.8,0,0,0-5,6.9,8.5,8.5,0,0,0,3.5,7.8,107.2,107.2,0,0,1,47,75.2,84.7,84.7,0,0,1-2.4,30.9c-.8,3.5-1.9,7-3,10.5a130,130,0,0,0-5.8,26.3,97.4,97.4,0,0,0,8,49.9,109.1,109.1,0,0,0,16.8,24.2l6.4-5.7-6.8,6.6a288.2,288.2,0,0,1-40-9.8Z" transform="translate(0 -42.7)" style="fill:#998a83"/><path id="e99b76b6-7bf3-43b8-aa5a-8956375296d1" data-name="Shape" d="M119.5,153.6a34.2,34.2,0,1,0,34.1,34.1A34.2,34.2,0,0,0,119.5,153.6Zm0,51.2a17.1,17.1,0,1,1,17-17.1A17,17,0,0,1,119.5,204.8Z" transform="translate(0 -42.7)" style="fill:#998a83"/><path id="3fb0d948-c0f7-4f42-aff3-a31956c02b0a" data-name="Shape" d="M213.3,153.6a34.2,34.2,0,1,0,34.2,34.1A34.1,34.1,0,0,0,213.3,153.6Zm0,51.2a17.1,17.1,0,1,1,17.1-17.1A17,17,0,0,1,213.3,204.8Z" transform="translate(0 -42.7)" style="fill:#998a83"/><path id="2b918bec-b575-40ad-9b83-f5900d145e4d" data-name="Shape" d="M307.2,153.6a34.2,34.2,0,1,0,34.1,34.1A34.1,34.1,0,0,0,307.2,153.6Zm0,51.2a17.1,17.1,0,1,1,17.1-17.1A17.1,17.1,0,0,1,307.2,204.8Z" transform="translate(0 -42.7)" style="fill:#998a83"/><circle id="81b9796c-1ef0-46fe-990e-443e422a1d61" data-name="Oval" cx="213.3" cy="42.7" r="8.5" style="fill:#998a83"/></g></g></svg>