<svg id="05cd283e-b473-4db5-a712-b704c0427785" data-name="Capa 1" xmlns="http://www.w3.org/2000/svg" viewBox="0 0 511.9 436"><title>contacts</title><path d="M100.2,447.9h0a3.9,3.9,0,0,0-4,4,4,4,0,1,0,4-4Z" transform="translate(0 -52)" style="fill:#e1ed22"/><path d="M100.2,463.9h0a3.9,3.9,0,0,0-4,4,4,4,0,1,0,4-4Z" transform="translate(0 -52)" style="fill:#e1ed22"/><path d="M100,479.9H8V457.2c0-10.3,3.7-14.5,17.4-19.6,7.7-2.9,18.9-7.2,28.3-11.7a4,4,0,0,0-3.4-7.2c-10.2,4.9-22.9,9.6-27.7,11.4C8.3,435.5,0,441.7,0,457.3V484a4,4,0,0,0,4,4h96a4.1,4.1,0,0,0,0-8.1Z" transform="translate(0 -52)" style="fill:#847268"/><path d="M177.4,430.2c-7.5-2.8-18.6-7.1-27.7-11.4a4,4,0,1,0-3.4,7.2c9.4,4.5,20.7,8.8,28.3,11.7,13.7,5.1,17.4,9.3,17.4,19.6V480H100a4,4,0,0,0,0,8h96a4,4,0,0,0,4-4V457.3C200,441.7,191.7,435.5,177.4,430.2Z" transform="translate(0 -52)" style="fill:#847268"/><path d="M156.2,344.1a4,4,0,0,0-4,4c0,35.6-32.4,69-52,69s-52-33.4-52-69a4,4,0,0,0-8,0c0,41,37.4,77,60,77s60-36,60-77A4,4,0,0,0,156.2,344.1Z" transform="translate(0 -52)" style="fill:#847268"/><path d="M153.2,296.9a25.8,25.8,0,0,0-18.5-8.8c-1.1-4.4-1.9-12.9,6.9-16.5a4,4,0,0,0-.9-7.7,123.6,123.6,0,0,0-18.7-1.2c-20.9,0-49.4,4.1-67,23.4-12,13.1-16.9,31.3-14.8,54.1a4.1,4.1,0,0,0,3,3.5h1a4,4,0,0,0,3.3-1.8l14.2-21.4c6.4,2.3,22,7.1,38.7,7.1s31.8-4.8,38.2-7.1l14.2,21.3a4.1,4.1,0,0,0,4.2,1.7,4.2,4.2,0,0,0,3.1-3.3C163.1,320.5,160.8,305.8,153.2,296.9Zm0,31.6-9.9-14.8a4.1,4.1,0,0,0-3.3-1.8,4,4,0,0,0-1.5.3c-.2.1-18.5,7.7-38.2,7.7s-38.5-7.6-38.7-7.7a4.1,4.1,0,0,0-4.9,1.5l-9.1,13.6c.5-14.7,4.9-26.7,13.1-35.7,15.7-17.2,41.9-20.8,61.1-20.8l7.7.2c-5.3,7.4-3.8,17.2-1.5,22.7a4,4,0,0,0,4.2,2.5h1.4a17.4,17.4,0,0,1,13.4,6C151.7,307.5,153.8,316.6,153.2,328.5Z" transform="translate(0 -52)" style="fill:#847268"/><path d="M156.2,336a4,4,0,0,0-4,4v8.1a4,4,0,0,0,8,0V340A3.9,3.9,0,0,0,156.2,336Z" transform="translate(0 -52)" style="fill:#847268"/><path d="M44.2,336a4,4,0,0,0-4,4v8.1a4,4,0,0,0,8,0V340A3.9,3.9,0,0,0,44.2,336Z" transform="translate(0 -52)" style="fill:#847268"/><path d="M103.8,426.2a4,4,0,0,0-5.4-1.8l-13.5,6.7-22-22a4,4,0,0,0-5.7,5.7l24,24a4,4,0,0,0,4.6.8l16.1-8A4,4,0,0,0,103.8,426.2Z" transform="translate(0 -52)" style="fill:#847268"/><path d="M142.9,409.1a4,4,0,0,0-5.7,0l-22,22-13.5-6.7a4,4,0,0,0-3.6,7.2l16.1,8a3.9,3.9,0,0,0,1.8.4,3.8,3.8,0,0,0,2.8-1.2l24-24A3.9,3.9,0,0,0,142.9,409.1Z" transform="translate(0 -52)" style="fill:#847268"/><path d="M411.9,479.9h-92V457.2c0-10.3,3.7-14.5,17.4-19.6,8.3-3.1,19.1-7.3,28.3-11.7a4,4,0,1,0-3.4-7.2c-8.9,4.3-19.5,8.3-27.7,11.4-14.3,5.4-22.6,11.5-22.6,27.1v26.7a4,4,0,0,0,4,4h96a4,4,0,0,0,4-4A3.9,3.9,0,0,0,411.9,479.9Z" transform="translate(0 -52)" style="fill:#847268"/><path d="M489.3,430.2c-8.2-3.1-18.7-7.1-27.7-11.4a4,4,0,0,0-3.4,7.2c9.2,4.4,20,8.6,28.3,11.7,13.7,5.1,17.4,9.3,17.4,19.6V480h-92a4,4,0,0,0,0,8h96a4,4,0,0,0,4-4V457.3C511.9,441.7,503.6,435.5,489.3,430.2Z" transform="translate(0 -52)" style="fill:#847268"/><path d="M468.2,344.1a4,4,0,0,0-4,4c0,35.6-32.4,69-52,69s-52-33.4-52-69a4,4,0,0,0-8,0c0,41,37.4,77,60,77s60-36,60-77A4,4,0,0,0,468.2,344.1Z" transform="translate(0 -52)" style="fill:#847268"/><path d="M468.2,336a4,4,0,0,0-4,4v8.1a4,4,0,0,0,8,0V340A3.9,3.9,0,0,0,468.2,336Z" transform="translate(0 -52)" style="fill:#847268"/><path d="M356.2,336a4,4,0,0,0-4,4v8.1a4,4,0,0,0,8,0V340A3.9,3.9,0,0,0,356.2,336Z" transform="translate(0 -52)" style="fill:#847268"/><path d="M415.8,426.2a4,4,0,0,0-5.4-1.8l-13.5,6.7-22-22a4,4,0,0,0-5.7,5.7l24,24a4,4,0,0,0,4.6.8l16.1-8A4,4,0,0,0,415.8,426.2Z" transform="translate(0 -52)" style="fill:#847268"/><path d="M454.9,409.1a4,4,0,0,0-5.7,0l-22,22-13.5-6.7a4,4,0,1,0-3.6,7.2l16.1,8a3.9,3.9,0,0,0,1.8.4,3.8,3.8,0,0,0,2.8-1.2l24-24A3.9,3.9,0,0,0,454.9,409.1Z" transform="translate(0 -52)" style="fill:#847268"/><path d="M457.1,282.2c-11-11.8-27.3-17.8-48.6-17.8-23.7,0-44.9,7.5-45.8,7.8a4.2,4.2,0,0,0-2.6,3,3.9,3.9,0,0,0,1.2,3.7l4.6,4.3c-9.8,6.4-29.9,24.5-29.9,64.8a4.3,4.3,0,0,0,2,3.5,3.5,3.5,0,0,0,2,.5,4.6,4.6,0,0,0,2-.5c.6-.3,58.4-33.6,107.2-31.6l15.7,22.4a3.9,3.9,0,0,0,7.2-2C474.1,314.6,469,295.1,457.1,282.2Zm-2.5,31.5a4,4,0,0,0-3-1.7c-42.5-2.5-90.5,20.3-107.4,29.1,2.7-41,28.8-52.9,30-53.5a4.3,4.3,0,0,0,2.4-3,4,4,0,0,0-1.2-3.6l-3.5-3.3c7.9-2.2,21.9-5.4,36.6-5.4,19,0,33.4,5.1,42.8,15.2s13,22.7,13.4,40.2Z" transform="translate(0 -52)" style="fill:#847268"/><path d="M414.8,441.1l-8-8a4,4,0,0,0-5.7,5.7l8,8a3.9,3.9,0,0,0,5.6,0A4.1,4.1,0,0,0,414.8,441.1Z" transform="translate(0 -52)" style="fill:#847268"/><path d="M422.8,433.1a4,4,0,0,0-5.7,0l-8,8a4,4,0,1,0,5.6,5.7l8-8A4.1,4.1,0,0,0,422.8,433.1Z" transform="translate(0 -52)" style="fill:#847268"/><path d="M408.4,436a3.8,3.8,0,0,0-4.4,3.5l-4,36a4,4,0,0,0,3.5,4.4h.5a4.1,4.1,0,0,0,4-3.6l4-36A4,4,0,0,0,408.4,436Z" transform="translate(0 -52)" style="fill:#847268"/><path d="M423.9,475.5l-4-36a4,4,0,1,0-7.9.9l4,36a4.1,4.1,0,0,0,4,3.6h.5A4,4,0,0,0,423.9,475.5Z" transform="translate(0 -52)" style="fill:#847268"/><path d="M427.9,56H204a20.1,20.1,0,0,0-20,20V220a20.1,20.1,0,0,0,20,20H339.3l47.4,15.8,1.3.2a4,4,0,0,0,2.3-.8A4.3,4.3,0,0,0,392,252V240h36a20.1,20.1,0,0,0,20-20V76A20.1,20.1,0,0,0,427.9,56Zm12,164a12,12,0,0,1-12,12h-40a4,4,0,0,0-4,4v10.4l-42.7-14.2-1.3-.2H204a12,12,0,0,1-12-12V76a12,12,0,0,1,12-12H428a12,12,0,0,1,12,12V220Z" transform="translate(0 -52)" style="fill:#847268"/><path d="M387.9,104H236a4,4,0,0,0,0,8H388a4,4,0,0,0,4-4A4.1,4.1,0,0,0,387.9,104Z" transform="translate(0 -52)" style="fill:#e1ed22"/><path d="M387.9,144H236a4,4,0,0,0,0,8H388a4,4,0,0,0,4-4A4.1,4.1,0,0,0,387.9,144Z" transform="translate(0 -52)" style="fill:#e1ed22"/><path d="M316,184H236a4,4,0,0,0,0,8h80a4,4,0,0,0,0-8Z" transform="translate(0 -52)" style="fill:#e1ed22"/><path d="M244,52H220a4,4,0,0,0,0,8h24a4,4,0,0,0,0-8Z" transform="translate(0 -52)" style="fill:#847268"/><path d="M411.9,52h-24a4,4,0,0,0,0,8h24a4,4,0,0,0,4-4A3.9,3.9,0,0,0,411.9,52Z" transform="translate(0 -52)" style="fill:#847268"/><path d="M172,216H108a3.4,3.4,0,0,0-2.2.7L88,228.5V220a4,4,0,0,0-4-4H76a12,12,0,0,1-12-12V124a12,12,0,0,1,12-12h96a4,4,0,0,0,0-8H76a20.1,20.1,0,0,0-20,20v80a20.1,20.1,0,0,0,20,20h4v12a3.9,3.9,0,0,0,2.1,3.5,4.1,4.1,0,0,0,1.9.5,3.4,3.4,0,0,0,2.2-.7l23-15.3H172a4,4,0,0,0,0-8Z" transform="translate(0 -52)" style="fill:#847268"/><path d="M172,144H100a4,4,0,0,0,0,8h72a4,4,0,0,0,0-8Z" transform="translate(0 -52)" style="fill:#e1ed22"/><path d="M172,176H100a4,4,0,0,0,0,8h72a4,4,0,0,0,0-8Z" transform="translate(0 -52)" style="fill:#e1ed22"/></svg>