<svg id="7dba17c1-6cee-461c-b1eb-c36d6def8937" data-name="Слой 1" xmlns="http://www.w3.org/2000/svg" viewBox="0 0 195.8 89"><title>logo</title><path d="M54.5,73.9c-3.9,0-5.4-3.7-4.6-6.6a5.7,5.7,0,0,1,.1-2.6,7.7,7.7,0,0,1-.2-1.5A23.3,23.3,0,0,1,26.6,66c-18.7-7.9-18.7-34.7,0-42.7a22.4,22.4,0,0,1,9.2-1.7,5.3,5.3,0,0,1,.8-2.2c2-3,2.8-6.9,4.5-10.1a35.7,35.7,0,0,0-19.4,2.4c-29,12.3-29,53.7,0,65.9a35.9,35.9,0,0,0,35.2-4.1h-.6A5.7,5.7,0,0,1,54.5,73.9Z" transform="translate(0.1 0)" style="fill:#cfdc00"/><path d="M44.5,5.8a.7.7,0,0,0-.5-.4L21.7.1a4.6,4.6,0,0,0-5.2,3.6,4.4,4.4,0,0,0,3.2,5.1l8.5,2-5.5,3.4a5.2,5.2,0,0,1,3.2,5.4,2.9,2.9,0,0,1-.2.9,5,5,0,0,1-.9,2.4l7.9-4.8-2,8.5a4.4,4.4,0,0,0,3.1,5.5,4.5,4.5,0,0,0,5.5-3c0-.2,0-.3.1-.4L44.6,6.5A.8.8,0,0,0,44.5,5.8Z" transform="translate(0.1 0)" style="fill:#cfdc00"/><g style="isolation:isolate"><g style="isolation:isolate"><path d="M51.3,72.8A4.2,4.2,0,0,1,50,69.5V39.1H40.3c-3,0-4.4-1.3-4.4-3.8s1.4-3.8,4.4-3.8H69.1c3,0,4.4,1.3,4.4,3.8s-1.4,3.8-4.4,3.8H59.4V69.5a4.2,4.2,0,0,1-1.3,3.3,4.4,4.4,0,0,1-3.4,1.3A4.5,4.5,0,0,1,51.3,72.8Z" transform="translate(0.1 0)" style="fill:#fff"/><path d="M79.3,69.8c-3.1-3.1-4.6-7.6-4.6-13.5V35.8a4.5,4.5,0,0,1,1.2-3.3,4.5,4.5,0,0,1,3.4-1.3,4.2,4.2,0,0,1,3.3,1.3,4.5,4.5,0,0,1,1.3,3.3v21c0,3.3.7,5.9,2.3,7.6s3.7,2.7,6.7,2.7a8.5,8.5,0,0,0,6.7-2.7c1.5-1.8,2.3-4.3,2.3-7.6v-21a4.5,4.5,0,0,1,1.2-3.3,4.5,4.5,0,0,1,3.4-1.3,4.4,4.4,0,0,1,4.6,4.6V56.3c0,5.9-1.6,10.3-4.7,13.4s-7.6,4.6-13.5,4.6S82.4,72.8,79.3,69.8Z" transform="translate(0.1 0)" style="fill:#fff"/></g><g style="isolation:isolate"><path d="M126.1,71.7a18.2,18.2,0,0,1-7.2-7.6,24.4,24.4,0,0,1-2.5-11.5,24.7,24.7,0,0,1,2.5-11.5,18.6,18.6,0,0,1,7.2-7.5,23.9,23.9,0,0,1,24.5,1.7,3.7,3.7,0,0,1,1.2,1.4,3.4,3.4,0,0,1,.4,1.8,4,4,0,0,1-.9,2.7,2.6,2.6,0,0,1-2.1,1.1l-1.5-.2a4.1,4.1,0,0,1-1.4-.8,20,20,0,0,0-4.4-2.2,12.7,12.7,0,0,0-4.4-.7q-5.7,0-8.7,3.6c-1.9,2.4-2.9,5.9-2.9,10.6,0,9.5,3.9,14.3,11.6,14.3a11.6,11.6,0,0,0,4.2-.7,23.4,23.4,0,0,0,4.6-2.2l1.5-.8,1.4-.2a2.6,2.6,0,0,1,2.1,1.1,4.2,4.2,0,0,1,.9,2.7,3.4,3.4,0,0,1-.4,1.8,5.3,5.3,0,0,1-1.2,1.4,23.9,23.9,0,0,1-24.5,1.7Z" transform="translate(0.1 0)" style="fill:#fff"/></g><g style="isolation:isolate"><path d="M163.2,71.7a17.6,17.6,0,0,1-7.2-7.6,24.4,24.4,0,0,1-2.5-11.5A24.7,24.7,0,0,1,156,41.1a17.9,17.9,0,0,1,7.2-7.5A21.2,21.2,0,0,1,174.1,31,21,21,0,0,1,185,33.6a18.6,18.6,0,0,1,7.2,7.5,24.7,24.7,0,0,1,2.5,11.5,24.4,24.4,0,0,1-2.5,11.5,18.2,18.2,0,0,1-7.2,7.6,21,21,0,0,1-10.9,2.6A21.2,21.2,0,0,1,163.2,71.7Zm19.2-8.3q3-3.7,3-10.8c0-4.7-1-8.2-3-10.7a11.2,11.2,0,0,0-16.6,0c-2,2.5-3,6-3,10.7s1,8.3,3,10.8a11.2,11.2,0,0,0,16.6,0Z" transform="translate(0.1 0)" style="fill:#fff"/></g></g><g style="isolation:isolate"><path d="M135.3,88.4a3.5,3.5,0,0,1-1.7-1.7,5.1,5.1,0,0,1-.6-2.5,5.3,5.3,0,0,1,.6-2.6,4,4,0,0,1,1.7-1.7,4.9,4.9,0,0,1,2.5-.6,5.4,5.4,0,0,1,2.5.6,4.4,4.4,0,0,1,1.6,1.7,5.3,5.3,0,0,1,.6,2.6,5.1,5.1,0,0,1-.6,2.5,3.8,3.8,0,0,1-1.6,1.7,5.4,5.4,0,0,1-2.5.6A4.9,4.9,0,0,1,135.3,88.4Zm4.2-2a3.4,3.4,0,0,0,.6-2.2,3.7,3.7,0,0,0-.6-2.3,2.1,2.1,0,0,0-1.7-.7,2.1,2.1,0,0,0-1.8.7,3.7,3.7,0,0,0-.6,2.3,3.4,3.4,0,0,0,.6,2.2,2.1,2.1,0,0,0,1.7.8A2.2,2.2,0,0,0,139.5,86.4Z" transform="translate(0.1 0)" style="fill:#dedcdf"/><path d="M144.4,87.5a6.5,6.5,0,0,1-1.2-4.1,11.6,11.6,0,0,1,.4-3.5,6.6,6.6,0,0,1,1.2-2.2,6.9,6.9,0,0,1,2.2-1.4l1.8-.6,1.8-.6h.6a.7.7,0,0,1,.6.3.6.6,0,0,1,.3.6l-.2.5c-.1.2-.3.3-.6.5l-1,.4-1.3.4-1.2.4a4.6,4.6,0,0,0-2.1,1.4,5.4,5.4,0,0,0-.7,2.6,3.6,3.6,0,0,1,1.4-1.8,4,4,0,0,1,2.2-.6,3.8,3.8,0,0,1,3,1.2,4.5,4.5,0,0,1,1.1,3.4,4.8,4.8,0,0,1-.6,2.4,4.4,4.4,0,0,1-1.6,1.7,5.5,5.5,0,0,1-2.6.6A4.3,4.3,0,0,1,144.4,87.5Zm5.3-1.1a3.7,3.7,0,0,0,.6-2.1,2.8,2.8,0,0,0-.6-2,1.9,1.9,0,0,0-1.6-.7,2.1,2.1,0,0,0-1.8.7,3.3,3.3,0,0,0-.7,2.1,3.2,3.2,0,0,0,.6,2,2.1,2.1,0,0,0,1.7.8A2.2,2.2,0,0,0,149.7,86.4Z" transform="translate(0.1 0)" style="fill:#dedcdf"/><path d="M163.7,79.7a1.1,1.1,0,0,1,.3.8v7.4a1.1,1.1,0,1,1-2.2,0V83.1l-1.9,3.5a1,1,0,0,1-.4.5l-.6.2a1.1,1.1,0,0,1-1.1-.7l-2-3.5v4.8a1.1,1.1,0,0,1-.3.8,1.3,1.3,0,0,1-.8.3,1,1,0,0,1-1.1-1.1V80.6a1.2,1.2,0,0,1,.3-.9,1.1,1.1,0,0,1,.8-.3h.9a2.2,2.2,0,0,1,.6.7l2.6,4.9,2.4-4.7c.2-.4.4-.7.7-.8l.8-.2A1.2,1.2,0,0,1,163.7,79.7Z" transform="translate(0.1 0)" style="fill:#dedcdf"/><path d="M173.4,86.6a.8.8,0,0,1,.2.6c0,.4-.3.7-.7,1l-1.5.6-1.6.2a4.6,4.6,0,0,1-3.5-1.3,4.5,4.5,0,0,1-1.3-3.5,6.2,6.2,0,0,1,.5-2.5,5.6,5.6,0,0,1,1.6-1.8,4.8,4.8,0,0,1,2.4-.6,4,4,0,0,1,2.2.6,3.6,3.6,0,0,1,1.4,1.6,4.1,4.1,0,0,1,.5,2.3c0,.6-.2.8-.7.8h-5.6a3.4,3.4,0,0,0,.7,2,2.9,2.9,0,0,0,1.9.6l1-.2,1.1-.4.8-.3A.7.7,0,0,1,173.4,86.6Zm-5.4-5a3,3,0,0,0-.7,1.8h4.3a2.4,2.4,0,0,0-.6-1.8,1.8,1.8,0,0,0-1.5-.6A2,2,0,0,0,168,81.6Z" transform="translate(0.1 0)" style="fill:#dedcdf"/><path d="M174.9,88.7a1.1,1.1,0,0,1-.3-.8V80.5a1.1,1.1,0,0,1,.3-.8,1.2,1.2,0,0,1,.9-.3,1.1,1.1,0,0,1,.8.3.9.9,0,0,1,.4.8v2.7h4V80.5a1.1,1.1,0,0,1,.3-.8,1.4,1.4,0,0,1,.9-.3,1.2,1.2,0,0,1,.9.3,1.1,1.1,0,0,1,.3.8v7.3a1.1,1.1,0,0,1-.3.8,1,1,0,0,1-.9.4,1.2,1.2,0,0,1-.9-.4,1.1,1.1,0,0,1-.3-.8V85h-4v2.9a.9.9,0,0,1-.4.8,1.1,1.1,0,0,1-.8.3A1.2,1.2,0,0,1,174.9,88.7Z" transform="translate(0.1 0)" style="fill:#dedcdf"/><path d="M185.2,88.6a1.3,1.3,0,0,1-.4-.9V80.5a1.2,1.2,0,0,1,.4-.8,1.1,1.1,0,0,1,.8-.3,1.2,1.2,0,0,1,.9.3,1.1,1.1,0,0,1,.3.8v2.1h1.4a5.4,5.4,0,0,1,2.7.7,2.9,2.9,0,0,1,.9,2.3,3.5,3.5,0,0,1-.5,1.8,3,3,0,0,1-1.4,1.1,4.8,4.8,0,0,1-1.8.4H186A1.1,1.1,0,0,1,185.2,88.6Zm4.1-1.7a1.4,1.4,0,0,0,.6-1.2,1.2,1.2,0,0,0-.5-1.1,2.9,2.9,0,0,0-1.4-.3h-.8v2.9h.8A2.5,2.5,0,0,0,189.3,86.9Zm4.4,1.8a1.1,1.1,0,0,1-.3-.8V80.5a1.1,1.1,0,0,1,.3-.8,1.2,1.2,0,0,1,.9-.3,1.1,1.1,0,0,1,.8.3.9.9,0,0,1,.4.8v7.4a.9.9,0,0,1-.4.8,1.1,1.1,0,0,1-.8.3A1.2,1.2,0,0,1,193.7,88.7Z" transform="translate(0.1 0)" style="fill:#dedcdf"/></g></svg>