<svg id="872cc03f-5077-4de7-859d-22cb4846a2a0" data-name="Capa 1" xmlns="http://www.w3.org/2000/svg" viewBox="0 0 512 392.5"><title>mail</title><path d="M486.4,59.7H25.6A25.6,25.6,0,0,0,0,85.3V426.7a25.6,25.6,0,0,0,25.6,25.6H486.4A25.6,25.6,0,0,0,512,426.7V85.3A25.6,25.6,0,0,0,486.4,59.7Zm8.5,367a8.5,8.5,0,0,1-8.5,8.5H25.6a8.5,8.5,0,0,1-8.5-8.5V85.3a8.5,8.5,0,0,1,8.5-8.5H486.4a8.5,8.5,0,0,1,8.5,8.5V426.7Z" transform="translate(0 -59.7)" style="fill:#998a83"/><path d="M470.1,93.9a8.6,8.6,0,0,0-6.3,2L267,261.2a17,17,0,0,1-22,0L48.2,95.9a8.5,8.5,0,0,0-13.9,5,8.2,8.2,0,0,0,2.9,8L234,274.3a34.2,34.2,0,0,0,44,0L474.8,108.9a8.1,8.1,0,0,0,3-5.8,8.7,8.7,0,0,0-1.9-6.2A8.9,8.9,0,0,0,470.1,93.9Z" transform="translate(0 -59.7)" style="fill:#998a83"/><path d="M164.1,273.1a8.8,8.8,0,0,0-8.2,2.7L36.4,403.8a8.6,8.6,0,0,0,4.3,14.3,8.8,8.8,0,0,0,8.2-2.7l119.5-128a8.6,8.6,0,0,0-4.3-14.3Z" transform="translate(0 -59.7)" style="fill:#998a83"/><path d="M356.1,275.8a8.8,8.8,0,0,0-8.2-2.7,8.6,8.6,0,0,0-4.3,14.3l119.5,128a8.5,8.5,0,0,0,12.5-11.6Z" transform="translate(0 -59.7)" style="fill:#998a83"/></svg>