<?xml version="1.0" encoding="utf-8"?>
<!-- Generator: Adobe Illustrator 24.1.1, SVG Export Plug-In . SVG Version: 6.00 Build 0)  -->
<svg version="1.1" id="Capa_1" xmlns="http://www.w3.org/2000/svg" xmlns:xlink="http://www.w3.org/1999/xlink" x="0px" y="0px"
	 viewBox="0 0 450.7 450.7" style="enable-background:new 0 0 450.7 450.7;" xml:space="preserve">
<style type="text/css">
	.st0{fill:#E1ED22;}
	.st1{fill:#8C7368;}
</style>
<g>
	<g>
		<path class="st0" d="M225.2,100.4c-44.5,0.1-85.6,23.8-108,62.3c-1.1,1.9-0.4,4.3,1.4,5.4c0.6,0.4,1.3,0.6,2,0.6
			c1.4,0,2.8-0.8,3.5-2c20.9-36,59.4-58.3,101.1-58.3c2.2,0,4-1.8,4-4S227.4,100.4,225.2,100.4z"/>
	</g>
</g>
<g>
	<g>
		<path class="st1" d="M109.2,191c-2.1-0.6-4.3,0.7-4.9,2.9h0.1c-2.6,10.2-4,20.7-4,31.2c0,2.2,1.8,4,4,4s4-1.8,4-4
			c0-9.9,1.2-19.7,3.7-29.2C112.6,193.7,111.4,191.5,109.2,191z"/>
	</g>
</g>
<g>
	<g>
		<path class="st1" d="M225.2,341.8c-31,0.1-60.7-12.2-82.5-34.2c-1.6-1.6-4.1-1.5-5.7,0.1s-1.5,4.1,0.1,5.7
			c23.3,23.4,55,36.6,88,36.5c2.2,0.1,4.1-1.6,4.2-3.8c0-0.1,0-0.2,0-0.3C229.2,343.6,227.4,341.8,225.2,341.8z"/>
	</g>
</g>
<g>
	<g>
		<path class="st0" d="M345.8,221.1c-2.2,0-4,1.8-4,4c0,15.6-3.1,31-9.2,45.4c-0.9,2,0.1,4.4,2.1,5.2c0.5,0.2,1,0.3,1.6,0.3
			c1.6,0,3.1-1,3.7-2.4c6.5-15.3,9.8-31.9,9.8-48.5C349.8,222.9,348.1,221.1,345.8,221.1z"/>
	</g>
</g>
<g>
	<g>
		<path class="st0" d="M258.4,246.6c-1.7-18.9-17.8-33.2-36.7-32.9c-11.6,0-20.9-9.4-20.9-20.9c0-11.6,9.4-20.9,20.9-20.9
			c6.7,0,13,3.2,16.9,8.6c1.4,1.7,3.9,1.9,5.6,0.5c1.5-1.3,1.9-3.5,0.8-5.2c-4.6-6.3-11.6-10.5-19.4-11.6v-10.1c0-2.2-1.8-4-4-4
			s-4,1.8-4,4v10.1c-15.8,2-27,16.5-25,32.3c1.9,14.7,14.6,25.6,29.4,25.2c15.6,0,28.2,12.6,28.2,28.2c0,15.6-12.6,28.2-28.2,28.2
			c-9,0-17.5-4.3-22.8-11.6c-1.3-1.8-3.8-2.2-5.6-0.9c-1.8,1.3-2.2,3.8-0.9,5.6c5.9,8,14.9,13.3,24.8,14.6V296c0,2.2,1.8,4,4,4
			s4-1.8,4-4v-10C245.6,284.2,260.2,266.5,258.4,246.6z"/>
	</g>
</g>
<g>
	<g>
		<path class="st1" d="M114.3,315.2c-17.5-21.5-28.4-47.7-31.2-75.4c-0.2-2.1-1.9-3.6-4-3.6h-75c-1.1,0-2.2,0.5-2.9,1.3
			c-0.8,0.8-1.2,1.9-1.1,3c3.2,49.2,22.5,95.9,55,132.9c0.7,0.8,1.8,1.4,2.9,1.4c1.1,0,2.1-0.4,2.8-1.2l53.2-53
			C115.5,319.1,115.6,316.8,114.3,315.2z M58.4,364.8c-28.7-34.1-46.2-76.2-50-120.6l67.1,0c3.4,26.7,13.9,51.9,30.4,73.1
			L58.4,364.8z"/>
	</g>
</g>
<g>
	<g>
		<path class="st1" d="M373.2,55c-37-32.5-83.6-51.8-132.7-55c-1.1-0.1-2.2,0.3-3,1.1c-0.8,0.8-1.3,1.8-1.3,2.9v75
			c0,2.1,1.5,3.8,3.6,4c7.3,0.8,14.6,2.1,21.7,4c0.5,0.3,1.1,0.4,1.7,0.5c19,5.2,36.7,14.3,52,26.8c0.7,0.6,1.6,0.9,2.5,0.9
			c1.1,0,2.1-0.4,2.8-1.2l52.8-53c0.8-0.8,1.2-1.8,1.2-3C374.6,56.8,374.1,55.8,373.2,55z M244.5,8.3c9.7,0.9,19.4,2.4,29,4.5
			l-29,29.4V8.3z M262.4,78.9c-6-1.5-12-2.7-18.1-3.5l0.2-21.8l38-38.6c11,2.9,21.6,6.7,32,11.4L262.4,78.9z M271.1,81.4L321.8,30
			c9.4,4.7,18.5,10,27.2,16l-48,48.6C291.5,89.1,281.5,84.7,271.1,81.4z M317.4,105.8c-3.1-2.4-6.2-4.6-9.5-6.8l47.5-48
			c3.2,2.4,6.3,4.8,9.4,7.4L317.4,105.8z"/>
	</g>
</g>
<g>
	<g>
		<path class="st1" d="M212.8,1.1c-0.8-0.8-1.9-1.2-3-1.1C97.4,8,8,97.3,0.1,209.7c-0.1,1.1,0.3,2.2,1.1,3c0.8,0.8,1.8,1.3,2.9,1.3
			h75c2.1,0,3.8-1.5,4-3.6C90.1,143.2,143.2,90.1,210.4,83c2.1-0.2,3.6-1.9,3.6-4V4C214,2.9,213.6,1.8,212.8,1.1z M206,75.4
			C137.9,84.2,84.3,137.9,75.5,206H8.4C17.9,101,101.1,17.8,206,8.3V75.4z"/>
	</g>
</g>
<g>
	<g>
		<path class="st1" d="M447.6,189c0.1-0.4,0.1-0.7,0.1-1.1c-6.9-41.2-25.1-79.6-52.5-111.1c-0.7-0.8-1.8-1.3-2.9-1.4
			c-1.1-0.1-2.2,0.4-3,1.2l-53,53c-1.5,1.4-1.6,3.8-0.3,5.4c49.8,61.2,40.5,151.2-20.8,200.9c-19.8,16.1-43.5,26.6-68.7,30.4
			c-0.6-0.1-1.3,0-1.8,0.2c-39.2,5.6-79-5.5-109.7-30.6c-1.6-1.3-3.9-1.2-5.4,0.3l-53,53.1c-0.8,0.8-1.2,1.9-1.2,3
			c0,1.1,0.5,2.1,1.4,2.9c24.2,21.1,52.6,36.7,83.3,46c0.4,0.2,0.8,0.2,1.3,0.2c20.8,6.2,42.3,9.3,64,9.3c6.9,0,13.7-0.4,20.5-1h0.4
			c0.3,0,0.6-0.1,0.8-0.2c21-2,41.5-7,61.1-14.7c0.4-0.1,0.8-0.2,1.1-0.4c17.1-6.8,33.2-15.8,48.1-26.6c0.5-0.2,1-0.5,1.4-0.9
			c14.3-10.5,27.2-22.7,38.7-36.2c0.1-0.1,0.3-0.1,0.4-0.2c0.2-0.3,0.4-0.5,0.6-0.8c11.8-14.1,21.8-29.6,29.8-46.1
			c0.1-0.2,0.2-0.4,0.3-0.7c8.8-18.2,15-37.6,18.6-57.5c0.1-0.4,0.1-0.7,0-1.1C451.6,239.3,451.8,213.9,447.6,189z M391.9,85.4
			c22.2,26.4,37.8,57.6,45.5,91.2L369,108.2L391.9,85.4z M85.4,392L98,379.3l48.8,48.8C124.5,419.5,103.8,407.3,85.4,392z
			 M225.2,442.8c-20.8,0-41.4-3-61.3-9l-60.2-60.2l29.2-29.2c5.7,4.5,11.7,8.5,18,12l86,86.1C232.9,442.5,228.9,442.8,225.2,442.8z
			 M247.4,441.4l-75.3-75.1c16.9,6.4,34.9,9.7,53,9.7c6.6,0,13.2-0.5,19.8-1.4l54.9,54.8C283,435.5,265.4,439.6,247.4,441.4z
			 M308,426.3L254.7,373c16.5-3.3,32.3-9.3,46.8-17.8l48.3,48.2C336.7,412.6,322.7,420.3,308,426.3z M356.2,398.7l-48-48
			c12.8-8.4,24.2-18.8,33.8-30.7l47.4,47.5C379.5,379.1,368.3,389.5,356.2,398.7z M394.7,361.4l-47.6-47.6
			c9.5-13,16.8-27.4,21.8-42.8l51.1,51C412.9,336,404.5,349.2,394.7,361.4z M423.6,314.4l-0.2,0l-52-52c5.2-20.2,6.1-41.3,2.6-61.9
			l65,64.8C435.8,282.3,430.7,298.7,423.6,314.4z M440.6,255.7l-69.8-69.8c-5.2-19.2-14.1-37.3-26.3-53l18.9-18.8l76.6,76.6
			C443.5,212.1,443.7,234.1,440.6,255.7z"/>
	</g>
</g>
</svg>
