<?xml version="1.0" encoding="utf-8"?>
<!-- Generator: Adobe Illustrator 22.1.0, SVG Export Plug-In . SVG Version: 6.00 Build 0)  -->
<svg version="1.1" id="f2a020fe-5935-43a5-bc29-a2ce1344d193"
	 xmlns="http://www.w3.org/2000/svg" xmlns:xlink="http://www.w3.org/1999/xlink" x="0px" y="0px" viewBox="0 0 97.8 97.8"
	 style="enable-background:new 0 0 97.8 97.8;" xml:space="preserve">
<style type="text/css">
	.st0{fill:#C9BEB1;}
	.st1{fill:#FFFFFF;}
</style>
<title>soc_fb</title>
<g>
	<path class="st0" d="M48.9,0C21.9,0,0,21.9,0,48.9s21.9,48.9,48.9,48.9s48.9-21.9,48.9-48.9l0,0C97.8,21.9,75.9,0,48.9,0z"/>
</g>
<path class="st1" d="M48.9,21.7c8.9,0,9.9,0,13.4,0.2c9,0.4,13.2,4.7,13.6,13.6C76,39,76.1,40,76.1,48.9c0,8.9,0,9.9-0.2,13.4
	c-0.4,8.9-4.6,13.2-13.6,13.6c-3.5,0.2-4.5,0.2-13.4,0.2c-8.9,0-9.9,0-13.4-0.2c-9-0.4-13.2-4.7-13.6-13.6
	c-0.2-3.5-0.2-4.5-0.2-13.4c0-8.9,0-9.9,0.2-13.4c0.4-8.9,4.6-13.2,13.6-13.6C38.9,21.7,40,21.7,48.9,21.7z M48.9,15.7
	c-9,0-10.1,0-13.7,0.2c-12.1,0.6-18.8,7.2-19.3,19.3c-0.2,3.5-0.2,4.7-0.2,13.7s0,10.1,0.2,13.7c0.6,12.1,7.2,18.8,19.3,19.3
	c3.5,0.2,4.7,0.2,13.7,0.2s10.1,0,13.7-0.2c12-0.6,18.8-7.2,19.3-19.3C82,59,82,57.9,82,48.9s0-10.1-0.2-13.7
	c-0.5-12-7.2-18.8-19.3-19.3C59,15.7,57.9,15.7,48.9,15.7z M48.9,31.9c-9.4,0-17,7.6-17,17S39.4,66,48.9,66s17-7.6,17-17.1
	C65.9,39.5,58.3,31.9,48.9,31.9z M48.9,60c-6.1,0-11.1-5-11.1-11.1c0-6.1,5-11.1,11.1-11.1s11.1,5,11.1,11.1C59.9,55,55,60,48.9,60z
	 M66.6,27.2c-2.2,0-4,1.8-4,4s1.8,4,4,4c2.2,0,4-1.8,4-4S68.8,27.2,66.6,27.2z"/>
</svg>
