<svg id="a7d9aa08-548d-4eda-a043-e75658d3d34a" data-name="Layer 1" xmlns="http://www.w3.org/2000/svg" viewBox="0 0 495.6 495.6"><title>soc_tg</title><path d="M347.7,149.5c3.2,0,4.7,1,4.7,3,0,.4-.1.8-.1,1.2S304.1,197.8,208,284.4l-5,49.2-23.6-77.4Q346.7,149.4,347.7,149.5Zm53.5-48.9q-1.9,0-317.4,117.9c-5.1,2-7.7,5.7-7.7,11.1s3.3,8.5,8.1,10.1l76.7,23.9,31,93.2c2,5.4,6,8.1,12.1,8.1a11.2,11.2,0,0,0,7.7-3.4l43.5-40.7,78.4,56.9A15.1,15.1,0,0,0,343,381c8.8,0,14.1-4.3,16.2-13.1l53.1-255.1a9.9,9.9,0,0,0-3.5-8.8c-2.6-2.2-5.1-3.4-7.6-3.4ZM247.8,0C384.7,0,495.6,110.9,495.6,247.8S384.7,495.6,247.8,495.6,0,384.7,0,247.8,110.9,0,247.8,0Z" style="fill:#c9beb1"/></svg>