<svg id="c454954e-e968-46ba-b9a4-c3bb1a75989b" data-name="Capa 1" xmlns="http://www.w3.org/2000/svg" viewBox="0 0 97.8 97.8"><title>soc_vk</title><path d="M48.9,0A48.9,48.9,0,1,0,97.8,48.9,48.9,48.9,0,0,0,48.9,0ZM73.7,54.2c2.2,2.2,4.7,4.3,6.7,6.7a16.7,16.7,0,0,1,2.4,3.5c.9,1.8.1,3.8-1.5,3.9h-10a7.7,7.7,0,0,1-6.4-2.6c-1.4-1.4-2.7-2.9-4-4.4a13.7,13.7,0,0,0-1.8-1.6c-1.4-.9-2.6-.6-3.3.8a11.2,11.2,0,0,0-1.1,4.7c-.1,2.4-.8,3-3.2,3.1-5.1.2-9.9-.5-14.3-3.1a30.9,30.9,0,0,1-9.7-9A128.4,128.4,0,0,1,14.8,33.6c-.8-1.8-.2-2.8,1.8-2.8s6.5-.1,9.8,0a2.9,2.9,0,0,1,2.7,2,60.9,60.9,0,0,0,6.7,12.3,9.5,9.5,0,0,0,2.5,2.8c1.1.8,2,.5,2.6-.8a7.5,7.5,0,0,0,.5-2.6,38.7,38.7,0,0,0-.1-9A3.8,3.8,0,0,0,38.1,32c-1-.1-.8-.5-.4-1a3.6,3.6,0,0,1,3.1-1.6H52.1c1.8.4,2.2,1.2,2.4,3V44.9c0,.7.4,2.8,1.6,3.3s1.7-.5,2.3-1.2a39.8,39.8,0,0,0,6.4-9.7c.7-1.6,1.4-3.2,2-4.8a2.6,2.6,0,0,1,2.6-1.8H81.3c1.8.3,2.3,1.1,1.7,2.9a26.6,26.6,0,0,1-4.3,7.5l-5.6,7.5C71.5,51,71.6,52.2,73.7,54.2Z" style="fill:#c9beb1"/></svg>