<svg id="d6fcfe2e-80fe-489b-9022-8d9ee9c1fe83" data-name="Capa 1" xmlns="http://www.w3.org/2000/svg" viewBox="0 0 58 58.2"><title>worktime</title><path d="M40.1,29.2H32.9a3.9,3.9,0,0,0-2.8-2.9V16.2a1,1,0,0,0-1-1,.9.9,0,0,0-1,1V26.3a4,4,0,1,0,4.8,4.9h7.2a1.1,1.1,0,0,0,1-1A1,1,0,0,0,40.1,29.2Zm-11,3a2,2,0,0,1-2-2,2,2,0,1,1,4,0A2,2,0,0,1,29.1,32.2Z" transform="translate(-0.1 0)" fill="#998a83"/><path d="M50.2,9.8l4.1,4.1a1,1,0,0,0,1.4,0A8.1,8.1,0,0,0,44.2,2.4a.9.9,0,0,0-.3.7,1.1,1.1,0,0,0,.3.7l4.6,4.6L47.1,10a27.2,27.2,0,0,0-36,0L9.4,8.4l4.5-4.6a1.1,1.1,0,0,0,.3-.7.9.9,0,0,0-.3-.7,8,8,0,0,0-11.4,0,8.1,8.1,0,0,0,0,11.5,1.1,1.1,0,0,0,.7.3l.7-.3L8,9.8l1.6,1.6A27.4,27.4,0,0,0,2.1,30.2,26.8,26.8,0,0,0,15.4,53.4l-3,3a1.1,1.1,0,0,0,0,1.5.9.9,0,0,0,.7.3,1.1,1.1,0,0,0,.7-.3l3.4-3.5a26.5,26.5,0,0,0,23.7,0l3.5,3.5a.9.9,0,0,0,.7.3,1.1,1.1,0,0,0,.7-1.8l-3-3a27,27,0,0,0,5.7-42Zm4.1-6a6.2,6.2,0,0,1,.6,7.9L46.4,3.1A6.1,6.1,0,0,1,54.3,3.8ZM3.2,11.7a6.1,6.1,0,0,1,.7-7.9,6.1,6.1,0,0,1,7.9-.7ZM29.1,55.2a25,25,0,1,1,25-25A25.1,25.1,0,0,1,29.1,55.2Z" transform="translate(-0.1 0)" fill="#998a83"/><path d="M29.1,10a1,1,0,0,0,1-1V8a1.1,1.1,0,0,0-1-1,1,1,0,0,0-1,1V9A.9.9,0,0,0,29.1,10Z" transform="translate(-0.1 0)" fill="#998a83"/><path d="M29.1,50a1,1,0,0,0-1,1v1a.9.9,0,0,0,1,1,1,1,0,0,0,1-1V51A1.1,1.1,0,0,0,29.1,50Z" transform="translate(-0.1 0)" fill="#998a83"/><path d="M50.1,31h1a1,1,0,0,0,1-1,1.1,1.1,0,0,0-1-1h-1a1,1,0,0,0-1,1A.9.9,0,0,0,50.1,31Z" transform="translate(-0.1 0)" fill="#998a83"/><path d="M8.1,29h-1a1,1,0,0,0-1,1,.9.9,0,0,0,1,1h1a1,1,0,0,0,1-1A1.1,1.1,0,0,0,8.1,29Z" transform="translate(-0.1 0)" fill="#998a83"/><path d="M43.9,13.8l-.7.7a1,1,0,0,0,0,1.4,1.1,1.1,0,0,0,.7.3.9.9,0,0,0,.7-.3l.7-.7a1,1,0,0,0-1.4-1.4Z" transform="translate(-0.1 0)" fill="#998a83"/><path d="M13.5,44.2l-.7.7a1,1,0,0,0,0,1.4,1.1,1.1,0,0,0,.7.3.9.9,0,0,0,.7-.3l.7-.7a1,1,0,0,0-1.4-1.4Z" transform="translate(-0.1 0)" fill="#998a83"/><path d="M44.6,44.2a1,1,0,0,0-1.4,1.4l.7.7a1.1,1.1,0,0,0,.7.3.9.9,0,0,0,.7-.3,1,1,0,0,0,0-1.4Z" transform="translate(-0.1 0)" fill="#998a83"/><path d="M14.2,13.8a1,1,0,0,0-1.4,1.4l.7.7a1.1,1.1,0,0,0,.7.3.9.9,0,0,0,.7-.3,1,1,0,0,0,0-1.4Z" transform="translate(-0.1 0)" fill="#998a83"/></svg>